<?xml version="1.0" encoding="UTF-8"?>
<svg id="Layer_1" data-name="Layer 1" xmlns="http://www.w3.org/2000/svg" viewBox="0 0 1000 1000">
  <defs>
    <style>
      .cls-1 {
        fill: #7b2bf9;
      }
    </style>
  </defs>
  <path class="cls-1" d="M988.57,395.92c-19.59-93.88-66.12-179.86-135.51-249.25C758.64,52.24,633.2,.27,499.59,.27S240.54,51.97,146.12,146.39c-23.13,23.13-43.27,47.89-60.95,74.01-5.17,7.07-10.07,14.42-14.15,22.31C24.76,319.73,0,407.62,0,499.86c0,133.61,51.97,259.05,146.39,353.47s219.86,146.39,353.47,146.39,259.05-51.97,353.47-146.39c44.35-44.35,79.73-96.05,104.49-151.84,2.99-5.99,5.44-12.52,7.89-19.05,22.59-57.14,34.29-118.91,34.29-182.31,0-33.47-3.27-65.31-9.8-97.41-.27-1.63-1.36-5.71-1.63-6.8Zm-173.33-228.3c2.72,2.72,5.71,5.44,8.71,8.44,44.08,44.08,78.37,95.78,100.95,151.84,2.18,5.44-2.45,11.7-8.71,10.61-13.06-2.45-28.03-3.27-44.35-2.99-11.43,.27-21.5-7.89-23.4-18.78-8.98-50.07-22.04-96.05-38.37-136.33-.82-2.18-1.9-4.35-2.72-7.07-2.18-5.17,4.08-9.8,7.89-5.71Zm47.62,293.06c0-5.17,6.53-7.62,9.8-3.27,3.54,5.17,7.35,10.61,10.88,15.78,4.63,7.07,8.98,14.15,12.79,21.22,2.45,4.35,1.9,9.8-1.36,13.61-5.17,5.71-11.16,11.97-17.41,18.23-2.18,2.18-4.63,4.63-7.07,7.07-2.99,2.72-8.16,.54-7.89-3.27,.27-7.62,.54-14.97,.54-22.86,.27-16.05,.27-31.29-.27-46.53ZM233.47,126.53c77.28-55.24,169.25-84.9,266.12-84.9,25.58,0,50.88,2.18,75.65,5.99,6.53,1.09,8.98,9.52,3.54,13.61-23.95,18.78-45.99,46.53-65.85,82.45-4.63,8.98-14.97,13.06-24.76,10.34-65.31-18.23-129.52-26.94-188.84-25.03-22.04,.82-42.45,2.99-62.04,6.53-5.44,1.36-8.16-5.71-3.81-8.98Zm-65.31,684.9c-9.8-17.96,2.72-60.14,66.12-124.35h0c6.53-6.53,5.99-17.41-1.36-23.4-2.45-1.9-4.9-3.81-7.62-5.99-6.26-4.9-15.51-4.63-21.22,1.09l-2.45,2.45c-31.56,32.38-53.88,62.59-66.12,89.8-3.54,7.89-14.15,8.71-18.78,1.36-49.25-74.01-75.65-161.09-75.65-252.24,0-32.38,3.27-64.76,10.07-95.78,1.09-4.63,7.62-4.9,9.25-.27,9.52,31.29,25.03,63.95,46.26,96.6,28.84,44.08,66.67,86.53,111.84,125.71h0c15.24,13.33,31.56,26.12,48.71,38.64,34.56,25.31,71.56,48.44,111.29,68.84,17.41,9.25,34.83,17.69,52.24,25.85,9.8,4.35,20.95,4.63,30.75,.82,8.44-3.27,16.6-6.53,25.03-10.07,9.25-3.81,14.15-13.61,11.7-23.4-.27-1.09-.54-2.18-.54-2.72-13.88-57.96-21.5-123.54-22.59-191.84h0v-32.38c0-16.05,.54-23.4,1.09-35.1h0c4.08-82.72,18.23-160.27,40.54-225.85,1.9-5.99-1.09-12.52-7.35-14.69-5.71-1.9-11.7-3.81-17.69-5.71-5.71-1.9-12.24,1.36-14.42,7.35-24.22,71.02-39.18,155.1-42.99,244.08-.54,11.43-6.53,21.77-16.33,27.48-52.79,31.29-100.95,64.49-143.13,97.69-8.71,7.07-21.22,6.53-29.66-.54-41.9-36.46-77.28-75.92-103.95-117.01-52.52-80.54-65.03-156.19-35.1-213.61l.27-.27c3.81-6.26,7.89-12.52,11.97-18.5,34.29-45.17,97.96-71.56,182.59-74.56,5.17-.27,10.88-.27,16.05-.27,51.97,0,107.48,8.71,164.08,25.03h0c1.09,.27,9.25,2.72,10.88,3.27,14.42,4.63,38.91,13.06,42.18,14.15,1.36,.54,8.98,3.54,10.07,3.81h0c27.76,10.88,55.24,23.13,82.45,37.28,52.79,27.48,100.95,59.59,143.4,94.97-80.27,18.23-173.61,53.88-267.48,101.5-4.35,2.18-7.35,6.53-7.62,11.43-.27,5.71-.82,17.41-1.09,26.94-.27,5.71,5.99,9.8,11.16,7.07h0c93.06-48.98,185.85-85.17,265.58-104.76,14.97-3.54,24.49-17.69,22.59-32.93-1.36-10.61-2.99-21.22-4.9-31.29-2.18-12.79-9.52-24.49-19.59-32.11-37.28-28.3-78.37-54.42-122.45-77.55-29.66-15.51-59.59-28.84-90.07-40.54-6.26-2.45-9.25-10.07-5.71-16.05,31.02-55.51,68.03-86.53,104.22-86.53h1.09c42.45,.82,84.63,44.9,116.19,121.36,15.78,38.64,28.03,83.27,36.73,131.7h0c2.45,13.61,4.35,27.48,5.99,41.63,.82,7.35,2.18,18.5,2.99,23.4,3.54,36.73,4.9,75.1,4.35,114.01-.54,24.76-1.63,49.25-3.81,72.93-56.87,45.71-127.07,91.7-204.35,132.52-20.95,10.88-41.9,21.5-62.59,31.29-4.35,2.18-22.31,10.07-23.4,10.61-19.59,8.98-38.91,16.87-58.23,24.49h0c-1.09,.54-22.86,8.71-24.22,9.25-1.63,.54-12.79,4.63-14.15,5.17-41.63,14.69-81.63,25.85-118.1,32.93-92.25,17.69-135.51,4.08-145.03-14.15Zm125.44-177.96c40.27-32.65,87.62-65.85,139.59-96.87,1.09,66.39,8.44,130.34,21.5,187.76-19.05-8.44-38.37-17.14-57.41-27.21-37.01-19.05-71.84-40.54-103.67-63.67Zm265.03,321.09c-19.32,2.45-39.18,3.81-59.05,3.81-89.25,0-174.42-25.31-247.35-72.38-4.9-3.27-2.72-11.16,2.99-11.43,1.09,0,2.45,0,3.27-.27,18.5-1.09,38.91-3.81,60.95-8.16,46.8-9.25,99.05-24.49,153.74-45.44,4.9-1.9,10.34,.54,12.52,5.44h0c21.22,51.7,47.07,90.61,76.73,115.37,5.17,4.35,2.72,12.24-3.81,13.06Zm194.01-122.45c-32.65,64.49-72.93,100.41-112.11,99.59-42.45-.82-84.63-44.9-116.19-121.36h0c-1.9-4.63,.27-10.34,4.9-12.52,.27-.27,.54-.27,1.09-.54,1.9-.82,4.35-1.09,6.53-.54,58.5,16.33,116.46,25.03,170.61,25.03,5.71,0,11.7,0,17.41-.27,6.53-.27,13.33-.54,19.86-1.09,6.26,0,10.61,6.26,7.89,11.7Zm14.15-55.51c-13.61,1.9-28.03,3.27-42.99,3.81-36.73,1.36-75.65-1.9-115.37-9.25-4.9-.82-5.71-7.62-1.36-9.8,8.71-4.35,17.41-8.98,26.12-13.61,60.95-32.38,118.1-67.76,167.89-103.95,3.54-2.72,8.98,.54,8.16,4.9-7.07,41.63-16.33,80.82-28.57,116.19-2.45,6.53-7.62,10.88-13.88,11.7Zm67.76,36.46c-3.27,3.54-7.07,7.35-10.61,10.88-5.99,5.99-12.79,12.24-19.05,17.96-4.08,3.54-10.34-.82-8.16-5.71,.54-1.36,1.36-2.72,1.9-4.35,2.72-5.99,5.17-12.24,8.16-18.5,.54-1.36,1.9-2.45,3.27-2.99,6.26-1.63,12.79-3.54,18.78-5.44,5.44-1.63,9.25,4.63,5.71,8.16Zm91.97-145.31c-1.9,4.63-3.54,9.25-5.71,13.88-.54,.82-3.27,6.53-3.54,7.35-15.24,28.03-40.27,50.07-72.93,65.58-7.62,3.54-15.78-3.27-13.61-11.43,11.43-40.27,19.59-83.81,25.31-129.8,1.09-8.71,5.17-16.33,11.7-22.04,13.88-11.97,26.94-24.22,38.91-36.19h0c5.71-5.71,15.78-3.27,18.23,4.63,11.7,39.46,12.52,76.19,1.63,108.03Zm9.25-214.69c-3.27,5.99-12.24,6.26-16.05,.54-.54-.82-1.09-1.9-1.63-2.72-13.61-21.22-29.39-41.63-46.8-61.77-4.35-4.9-.82-12.52,5.71-12.79h.27c41.09,0,62.59,10.34,69.12,22.59,5.17,10.34,3.54,28.57-10.61,54.15Zm22.31,60.41c0,2.99-4.35,3.81-5.44,1.09-.54-1.09-1.09-2.45-1.63-3.54-1.09-2.18-.82-4.9,.82-7.07,.27-.27,.82-1.09,1.63-2.18,1.9-2.45,4.9-2.18,4.9,.54-.27,3.81-.27,7.35-.27,11.16Z"/>
</svg>