<?xml version="1.0" encoding="utf-8"?>
<!-- Generator: Adobe Illustrator 27.0.1, SVG Export Plug-In . SVG Version: 6.00 Build 0)  -->
<svg version="1.1" id="Layer_1" xmlns="http://www.w3.org/2000/svg" xmlns:xlink="http://www.w3.org/1999/xlink" x="0px" y="0px"
	 viewBox="0 0 1215.5 214.7" style="enable-background:new 0 0 1215.5 214.7;" xml:space="preserve">
<style type="text/css">
	.st0{fill:#FFFFFF;}
</style>
<g>
	<path class="st0" d="M839.5,134l-32-55.5c-1.6-2.6-5.1-3.5-7.7-1.9c-0.8,0.5-1.4,1.1-1.9,1.9l-32,55.5c-0.4,0.7-0.6,1.4-0.6,2.2
		c-0.2,3.1,2.1,5.8,5.2,6h0.1c2.2,0,3.9-1.1,5.2-3.4l4.9-8.6c0.7-1.1,1.9-1.8,3.2-1.8h37.4c1.3,0,2.5,0.7,3.1,1.8l5,8.6
		c1.2,2.2,2.9,3.3,5,3.4c3.1,0.1,5.6-2.3,5.7-5.4v-0.1C840.2,135.7,839.9,134.8,839.5,134z M812.8,117.3h-20.3
		c-1.4,0-2.5-1.1-2.5-2.5c0-0.4,0.1-0.8,0.3-1.2L800.5,96c0.7-1.2,2.2-1.6,3.4-0.9c0.4,0.2,0.7,0.5,0.9,0.9l10.1,17.6
		c0.7,1.2,0.3,2.7-0.9,3.4C813.7,117.2,813.3,117.3,812.8,117.3z M212.2,84.9C199.9,27,142.9-10,85,2.4c-20.3,4.3-38.8,14.4-53.5,29
		c-4.9,4.9-9.3,10.2-13.1,15.9c-1.1,1.5-2.1,3.1-3,4.8c-30.6,50.7-14.2,116.7,36.5,147.2s116.7,14.2,147.2-36.5
		c2.4-4,4.5-8.1,6.4-12.3c0.6-1.3,1.2-2.7,1.7-4.1c7.6-19.5,9.3-40.7,5.1-61.1L212.2,84.9z M175,35.9c0.6,0.6,1.2,1.2,1.8,1.8
		c9.3,9.3,16.7,20.4,21.7,32.6c0.3,0.8-0.1,1.8-0.9,2.2c-0.3,0.1-0.6,0.2-0.9,0.1c-3.1-0.5-6.3-0.8-9.5-0.7c-2.4,0-4.5-1.7-5-4.1
		c-1.7-10-4.5-19.8-8.2-29.3c-0.2-0.5-0.4-1-0.6-1.5c-0.3-0.5-0.2-1.1,0.2-1.5S174.7,35.4,175,35.9L175,35.9z M185.2,98.8
		c0-0.6,0.5-1.2,1.1-1.2c0.4,0,0.7,0.2,1,0.5c0.8,1.1,1.6,2.3,2.3,3.4c1,1.5,1.9,3,2.8,4.5c0.5,0.9,0.4,2.1-0.3,2.9
		c-1.1,1.3-2.4,2.6-3.8,3.9l-1.5,1.5c-0.4,0.4-1,0.3-1.4-0.1c-0.2-0.2-0.3-0.4-0.3-0.7c0.1-1.6,0.1-3.2,0.1-4.9
		C185.3,105.4,185.3,102.1,185.2,98.8z M50.2,27.1C66.9,15.2,86.9,8.8,107.3,8.9c5.4,0,10.8,0.4,16.2,1.3c0.9,0.1,1.5,1,1.4,1.9
		c-0.1,0.4-0.3,0.8-0.6,1c-5.1,4-9.9,10-14.1,17.7c-1,1.9-3.2,2.8-5.3,2.2c-13.1-3.8-26.8-5.6-40.5-5.3c-4.5,0.1-8.9,0.6-13.3,1.4
		c-0.6,0.1-1.2-0.3-1.3-0.9C49.7,27.8,49.9,27.4,50.2,27.1z M36.2,174c-2.1-3.9,0.6-12.9,14.2-26.7l0,0c1.3-1.3,1.3-3.5-0.1-4.8
		c-0.1-0.1-0.2-0.1-0.2-0.2l-1.6-1.3c-1.3-1.1-3.3-1-4.5,0.2l-0.5,0.5c-6.8,7-11.5,13.4-14.2,19.2c-0.6,1.2-1.9,1.6-3.1,1.1
		c-0.4-0.2-0.7-0.4-0.9-0.8C14.6,145.3,9,126.5,9,107.3c0-6.9,0.7-13.8,2.1-20.5c0.1-0.5,0.7-0.9,1.2-0.8c0.3,0.1,0.6,0.3,0.7,0.7
		c2.3,7.4,5.7,14.3,9.9,20.8c6.7,10.1,14.8,19.2,24,27l0,0c3.3,2.9,6.8,5.6,10.4,8.3c7.5,5.5,15.5,10.4,23.8,14.7
		c3.8,2,7.4,3.8,11.2,5.5c2.1,0.9,4.5,1,6.6,0.2c1.8-0.7,3.6-1.4,5.4-2.2c2-0.8,3-2.9,2.5-5c-0.1-0.3-0.1-0.5-0.1-0.6
		c-3.1-13.5-4.7-27.3-4.8-41.2l0,0c0-0.2,0-0.4,0-0.5c0-0.8,0-1.6,0-2.4c0-0.3,0-0.7,0-1V110l0,0c0-0.9,0-1.8,0-2.8
		c0.1-2.5,0.1-5,0.3-7.5l0,0c0.9-17.7,3.9-34.4,8.7-48.4c0.4-1.3-0.2-2.7-1.5-3.1l0,0c-1.3-0.4-2.5-0.8-3.8-1.2s-2.6,0.3-3.1,1.6
		c-5.2,15.2-8.4,33.3-9.2,52.4c-0.1,2.4-1.4,4.6-3.5,5.9c-10.7,6.3-21,13.3-30.7,21c-1.9,1.5-4.5,1.4-6.4-0.1
		c-8.6-7.3-16.1-15.7-22.3-25.1c-11.2-17.3-13.9-33.6-7.5-45.8l0.1-0.1c0.8-1.4,1.7-2.7,2.6-4c7.4-9.7,21-15.4,39.2-16
		c1.1,0,2.3-0.1,3.5-0.1c11.9,0.1,23.8,1.9,35.2,5.3l0,0l0.8,0.2l0.6,0.2l0,0c2.8,0.8,5.6,1.8,8.4,2.8l0,0l0.2,0.1l2.2,0.8l0.7,0.3
		l0.7,0.2l0,0c6,2.3,12,5,17.7,8c11,5.7,21.3,12.5,30.7,20.4c-17.2,4-37.2,11.6-57.4,21.9c-0.9,0.5-1.5,1.4-1.6,2.4
		c-0.1,1.2-0.2,3.8-0.2,5.8c0,0.9,0.7,1.7,1.6,1.7c0.3,0,0.5-0.1,0.8-0.2l0,0c19.9-10.5,39.8-18.3,56.9-22.4
		c3.2-0.8,5.3-3.8,4.8-7.1c-0.3-2.3-0.7-4.5-1.1-6.7c-0.5-2.8-2-5.2-4.2-6.9c-8.3-6.3-17-11.8-26.3-16.6c-6.3-3.3-12.7-6.2-19.3-8.7
		c-1.3-0.5-1.9-1.9-1.4-3.1c0-0.1,0.1-0.2,0.2-0.3c6.7-11.9,14.6-18.6,22.3-18.6h0.2c9.1,0.2,18.2,9.7,24.9,26
		c3.6,9.1,6.3,18.6,7.9,28.2l0,0c0.8,4.4,1.4,9,1.9,13.7l-0.1,0.1l0.2,0.2c0.8,8.1,1.1,16.3,0.9,24.5c-0.1,5.3-0.4,10.5-0.8,15.6
		c-13.7,10.8-28.3,20.4-43.8,28.4c-5.4,2.9-10.9,5.6-16.3,8l-0.2,0.1l-1.2,0.6l0,0c-4.5,2-8.9,3.9-13.2,5.6l0,0l-0.7,0.3l-0.9,0.4
		l-2.2,0.8l-0.6,0.2c-0.9,0.3-1.8,0.6-2.6,1l-0.3,0.1l0,0c-8.6,3.1-17.4,5.6-26.3,7.4C47.5,180.9,38.3,178,36.2,174z M63.2,135.9
		c9.5-7.6,19.5-14.6,30-20.8c0.2,13.5,1.7,27,4.6,40.3c-4.1-1.8-8.2-3.7-12.3-5.8C77.7,145.5,70.2,141,63.2,135.9L63.2,135.9z
		 M120.1,204.8c-4.2,0.5-8.4,0.8-12.7,0.8c-18.8,0.1-37.3-5.3-53.1-15.5c-0.6-0.4-0.8-1.2-0.4-1.8c0.2-0.4,0.6-0.6,1.1-0.6h0.7
		c4.4-0.3,8.8-0.9,13.1-1.8c11.3-2.3,22.3-5.6,33-9.7c1.1-0.4,2.2,0.1,2.6,1.2l0,0c4.6,11.1,10.1,19.4,16.4,24.8
		c0.7,0.6,0.7,1.6,0.1,2.2C120.7,204.5,120.4,204.7,120.1,204.8L120.1,204.8z M161.6,178.5c-7,13.8-15.7,21.6-24,21.4
		c-9.1-0.2-18.2-9.6-24.9-26l0,0c-0.4-1,0.1-2.2,1.1-2.7l0.2-0.1c0.4-0.2,0.9-0.2,1.4-0.1c11.9,3.4,24.2,5.3,36.6,5.4
		c1.3,0,2.5,0,3.8-0.1c1.5-0.1,2.9-0.1,4.3-0.2c0.9,0,1.7,0.7,1.7,1.6C161.8,178,161.7,178.3,161.6,178.5L161.6,178.5z M164.6,166.6
		c-3.1,0.4-6.2,0.7-9.2,0.8c-8.3,0.2-16.6-0.4-24.8-2c-0.6-0.1-1-0.7-0.9-1.3c0.1-0.3,0.3-0.6,0.6-0.8c1.9-0.9,3.7-1.9,5.6-2.9
		c12.5-6.6,24.5-14,36-22.3c0.5-0.4,1.2-0.3,1.5,0.2c0.2,0.2,0.3,0.6,0.2,0.9c-1.4,8.5-3.4,16.8-6.1,24.9
		C167.1,165.5,166,166.4,164.6,166.6L164.6,166.6z M179.1,174.4c-0.7,0.8-1.5,1.6-2.3,2.3c-1.3,1.3-2.7,2.6-4.1,3.9
		c-0.5,0.4-1.2,0.3-1.6-0.1c-0.3-0.3-0.3-0.8-0.2-1.2c0.1-0.3,0.3-0.6,0.4-0.9c0.6-1.3,1.2-2.7,1.7-4c0.1-0.3,0.4-0.6,0.7-0.6
		c1.4-0.3,2.8-0.7,4.1-1.2c0.6-0.2,1.2,0.1,1.4,0.7C179.5,173.7,179.4,174.1,179.1,174.4L179.1,174.4z M198.9,143.2
		c-0.5,1.2-1,2.4-1.5,3.6l-0.2,0.5c-3.2,6.2-8.7,11.2-16,14.6c-1.1,0.5-2.3,0-2.8-1c-0.2-0.5-0.3-1-0.1-1.4
		c2.5-9.1,4.3-18.4,5.4-27.8c0.2-1.8,1.1-3.5,2.5-4.7c3-2.6,5.8-5.2,8.4-7.7l0,0c0.9-0.9,2.4-0.9,3.3,0c0.3,0.3,0.5,0.6,0.6,1
		C201.1,128.5,201.2,136.4,198.9,143.2L198.9,143.2z M200.9,97.2c-0.5,1-1.8,1.3-2.7,0.8c-0.3-0.2-0.5-0.4-0.7-0.7
		c-0.1-0.2-0.2-0.4-0.4-0.6c-3-4.6-6.4-9.1-10.1-13.2c-0.6-0.7-0.5-1.7,0.1-2.3c0.3-0.3,0.7-0.4,1.1-0.4l0,0
		c8.8,0,13.4,2.2,14.8,4.8C204.2,87.8,203.9,91.7,200.9,97.2L200.9,97.2z M205.7,110.2c0,0.3-0.3,0.6-0.6,0.6
		c-0.2,0-0.5-0.2-0.6-0.4l-0.3-0.8c-0.2-0.5-0.2-1,0.1-1.5c0.1-0.1,0.2-0.3,0.4-0.5c0.4-0.6,1-0.5,1,0.1
		C205.7,108.6,205.7,109.3,205.7,110.2L205.7,110.2z M517.7,86.9h37c3.1,0,5.5-2.5,5.5-5.6c0-0.2,0-0.4,0-0.6
		c-0.4-2.8-2.8-4.9-5.6-4.9h-46c-3.1,0-5.5,2.5-5.5,5.5v55.3c0,3,2.5,5.5,5.5,5.5h46.1c3.1,0,5.5-2.5,5.5-5.6c0-0.2,0-0.4,0-0.6
		c-0.4-2.8-2.8-4.9-5.6-4.9h-36.8c-2,0-3.6-1.6-3.6-3.6l0,0V118c0-2,1.6-3.6,3.6-3.6l0,0h27.8c3.1,0,5.5-2.5,5.5-5.6
		c0-0.2,0-0.4,0-0.6c-0.4-2.8-2.8-4.9-5.6-4.9h-27.6c-2,0-3.6-1.6-3.6-3.6l0,0v-9.4C514.1,88.5,515.7,86.9,517.7,86.9L517.7,86.9z
		 M630.7,108.4c-5.1-3.2-11.9-4.9-20.5-4.9c-11.3,0-17-2.8-17-8.3s5.7-8.3,17-8.3c6.2,0,12.3,1.2,18,3.5c3.3,1,5.6-0.2,6.9-3.4
		c1.1-2.9-0.4-5.6-3.4-7c-6.8-2.9-14.2-4.3-21.6-4.2c-8.4,0-15.1,1.8-20.4,5.2c-4.9,3-7.9,8.4-7.7,14.2c0,6.4,2.6,11.2,7.7,14.5
		s11.9,4.9,20.5,4.9c11.3,0,17.1,2.8,17.1,8.3s-5.7,8.3-17.1,8.3h-2.8c-6.1-0.1-12.2-1.3-17.9-3.5c-2.8-1-5.9,0.4-6.9,3.1
		c0,0.1,0,0.1-0.1,0.2c-1,2.9,0.5,6.1,3.4,7.2c6.8,2.8,14.1,4.2,21.5,4.1h2.8c8.4,0,15.1-1.8,20.3-5.2c5-3,8-8.4,7.8-14.2
		C638.4,116.5,635.8,111.6,630.7,108.4L630.7,108.4z M741.4,75.8c-3.1,0-5.5,2.5-5.5,5.5v55.3c0,3.1,2.5,5.5,5.5,5.5
		c3.1,0,5.5-2.5,5.5-5.5V81.4C746.9,78.3,744.4,75.8,741.4,75.8z M712.2,75.8H657c-3.1,0-5.5,2.5-5.5,5.6c0,0.2,0,0.4,0,0.6
		c0.4,2.8,2.8,4.9,5.6,4.9h18.4c2,0,3.6,1.6,3.6,3.6v46.2c0,3.1,2.5,5.5,5.6,5.5c0.2,0,0.4,0,0.6,0c2.8-0.4,4.9-2.8,4.9-5.6v-46
		c0-2,1.6-3.6,3.6-3.6h18.5c3.1,0,5.5-2.5,5.5-5.6c0-0.2,0-0.4,0-0.6C717.5,77.9,715,75.8,712.2,75.8z M479.4,131.1h-36.8
		c-2,0-3.6-1.6-3.6-3.6v-46c0-2.8-2.1-5.3-4.9-5.6c-3-0.4-5.8,1.8-6.2,4.8c0,0.2,0,0.4,0,0.7v55.3c0,3,2.5,5.5,5.5,5.5h46.1
		c3.1,0,5.5-2.5,5.5-5.6c0-0.2,0-0.4,0-0.6C484.7,133.2,482.3,131.1,479.4,131.1z M299.1,86.9c5.9-0.1,11.5,2.3,15.6,6.5
		c1.1,1,2.5,1.6,4,1.6c3,0,5.5-2.5,5.5-5.5c-0.1-1.7-0.9-3.4-2.3-4.4c-13-12.5-33.6-12.3-46.3,0.6c-6.3,6.1-9.8,14.6-9.7,23.4
		c-0.1,18.3,14.7,33.1,32.9,33.2c0.1,0,0.2,0,0.3,0c8.8,0.1,17.3-3.4,23.4-9.7c2.2-2.2,2.2-5.7,0-7.8c-2.2-2.2-5.7-2.2-7.8,0l0,0
		c-4.1,4.2-9.7,6.5-15.6,6.4c-12.2-0.3-21.9-10.4-21.7-22.6C277.7,96.7,287.3,87.1,299.1,86.9L299.1,86.9z M362.8,86.9h37
		c3.1,0,5.5-2.5,5.5-5.6c0-0.2,0-0.4,0-0.6c-0.4-2.8-2.8-4.9-5.6-4.9h-46c-3.1,0-5.5,2.5-5.5,5.5v55.3c0,3,2.5,5.5,5.5,5.5h46.1
		c3.1,0,5.5-2.5,5.5-5.6c0-0.2,0-0.4,0-0.6c-0.4-2.8-2.8-4.9-5.6-4.9h-36.8c-2,0-3.6-1.6-3.6-3.6V118c0-2,1.6-3.6,3.6-3.6h27.7
		c3.1,0,5.5-2.5,5.5-5.6c0-0.2,0-0.4,0-0.6c-0.4-2.8-2.8-4.9-5.6-4.9h-27.6c-2,0-3.6-1.6-3.6-3.6v-9.4
		C359.2,88.5,360.8,86.9,362.8,86.9L362.8,86.9z"/>
	<circle class="st0" cx="882" cy="109.2" r="6.6"/>
	<path class="st0" d="M931.8,81.8c0-3,2.5-5.5,5.5-5.5h23.4c18.2,0.3,32.6,15.3,32.3,33.4c-0.1,8.6-3.6,16.7-9.7,22.8
		c-6.1,6.3-14.5,9.7-23.2,9.6h-22.8c-3,0-5.5-2.5-5.5-5.5V81.8z M942.8,87.3v43.8h17.3c5.8,0.1,11.4-2.2,15.4-6.4
		c8.5-8.7,8.4-22.6-0.2-31.1c-4.1-4-9.5-6.3-15.2-6.3H942.8z"/>
	<path class="st0" d="M1005.8,109.2c0-18.2,14.7-32.9,32.9-32.9s32.9,14.7,32.9,32.9c0,8.8-3.5,17.2-9.7,23.3
		c-6.1,6.3-14.5,9.7-23.2,9.6c-18.1,0.1-32.8-14.5-32.9-32.6C1005.8,109.4,1005.8,109.3,1005.8,109.2z M1016.8,109.2
		c0,12.2,9.8,22,21.9,22.1c12.2,0,22-9.8,22.1-21.9c0-12.2-9.8-22-21.9-22.1c-5.9,0-11.5,2.3-15.7,6.5
		C1019,97.8,1016.7,103.4,1016.8,109.2L1016.8,109.2z"/>
	<path class="st0" d="M1141.6,85.5c1.4,1,2.2,2.7,2.3,4.4c0,3-2.5,5.5-5.5,5.5c-1.5,0-2.9-0.5-3.9-1.6c-4-4.2-9.6-6.6-15.4-6.5
		c-5.8-0.1-11.5,2.3-15.5,6.5c-8.6,8.6-8.6,22.4,0,31s22.4,8.6,31,0c2.1-2.2,5.5-2.3,7.8-0.3c2.2,2.1,2.3,5.5,0.3,7.8
		c-0.1,0.1-0.2,0.2-0.3,0.3c-6.1,6.3-14.5,9.7-23.2,9.6c-18.1,0.1-32.8-14.5-32.9-32.6c0-0.1,0-0.2,0-0.3
		c-0.1-18.1,14.5-32.8,32.6-32.9C1127.3,76.3,1135.5,79.6,1141.6,85.5L1141.6,85.5z"/>
	<path class="st0" d="M1187.6,131.1c11.2,0,16.9-2.7,16.9-8.2s-5.7-8.2-16.9-8.2c-8.5,0-15.2-1.6-20.3-4.8s-7.6-8-7.6-14.3
		c-0.1-5.7,2.8-11.1,7.7-14.1c5.2-3.4,11.9-5.1,20.2-5.1c7.3-0.1,14.5,1.3,21.3,4.1c3,1.4,4.5,4.1,3.4,6.9c-1.3,3.2-3.6,4.4-6.8,3.4
		c-5.7-2.3-11.7-3.5-17.8-3.5c-11.2,0-16.9,2.7-16.9,8.2s5.7,8.2,16.9,8.2c8.5,0,15.2,1.6,20.3,4.8s7.6,8,7.6,14.3
		c0.1,5.7-2.8,11.1-7.8,14.1c-5.1,3.4-11.8,5.1-20.1,5.1h-2.7c-7.3,0.1-14.5-1.2-21.3-4c-2.9-1-4.4-4.2-3.4-7.1c1-2.8,4-4.3,6.8-3.3
		c0.1,0,0.1,0,0.2,0.1c5.7,2.2,11.7,3.4,17.7,3.5L1187.6,131.1z"/>
</g>
</svg>
