<svg id="Layer_1" data-name="Layer 1" xmlns="http://www.w3.org/2000/svg" viewBox="0 0 1475.13 349"><defs><style>.cls-1{fill:#7b2bf9;}</style></defs><path class="cls-1" d="M969.28,200.88l-32-55.5a5.61,5.61,0,0,0-9.59,0l-32,55.5a4.91,4.91,0,0,0-.63,2.19,5.62,5.62,0,0,0,5.37,6c2.19,0,3.9-1.05,5.22-3.41l4.94-8.6a3.65,3.65,0,0,1,3.15-1.82h37.38a3.62,3.62,0,0,1,3.14,1.82l5,8.6c1.25,2.23,2.93,3.34,5,3.41a5.57,5.57,0,0,0,5.73-5.53A6.24,6.24,0,0,0,969.28,200.88ZM942.6,184.19H922.31a2.48,2.48,0,0,1-2.14-3.71l10.18-17.56a2.47,2.47,0,0,1,4.28,0l10.11,17.56A2.47,2.47,0,0,1,942.6,184.19ZM342,151.8A107.25,107.25,0,0,0,161.29,98.28a109.17,109.17,0,0,0-13.13,15.89,39.08,39.08,0,0,0-3,4.78A107.26,107.26,0,1,0,335.3,217.3a38.1,38.1,0,0,0,1.69-4.08,108.09,108.09,0,0,0,5.08-61.14Zm-37.2-49c.62.59,1.23,1.18,1.84,1.79a98.42,98.42,0,0,1,21.66,32.61,1.66,1.66,0,0,1-1.84,2.26,49.08,49.08,0,0,0-9.52-.68,5,5,0,0,1-5-4.07,144.9,144.9,0,0,0-8.23-29.27c-.2-.49-.41-1-.61-1.46A1,1,0,0,1,304.81,102.77ZM315,165.68a1.14,1.14,0,0,1,2.07-.69c.81,1.12,1.58,2.26,2.32,3.39,1,1.52,1.91,3,2.76,4.52a2.48,2.48,0,0,1-.32,2.89c-1.15,1.27-2.4,2.57-3.75,3.92l-1.51,1.48a1,1,0,0,1-1.67-.74c.07-1.61.11-3.23.14-4.86C315.11,172.26,315.1,169,315,165.68ZM180,94a97.6,97.6,0,0,1,57.09-18.25,98.8,98.8,0,0,1,16.19,1.33,1.65,1.65,0,0,1,.76,2.93c-5.14,4-9.91,10-14.13,17.71a4.6,4.6,0,0,1-5.29,2.23,133.72,133.72,0,0,0-40.48-5.35A91.88,91.88,0,0,0,180.85,96,1.11,1.11,0,0,1,180,94ZM166,240.9c-2.07-3.9.61-12.94,14.18-26.67h0a3.39,3.39,0,0,0-.3-5l-1.62-1.29a3.39,3.39,0,0,0-4.54.23l-.53.53c-6.78,7-11.53,13.42-14.19,19.22a2.32,2.32,0,0,1-4,.31,97.65,97.65,0,0,1-16.19-54.1,99.17,99.17,0,0,1,2.14-20.52,1,1,0,0,1,1.93-.09,81.77,81.77,0,0,0,9.95,20.75,130.33,130.33,0,0,0,24,27h0c3.29,2.86,6.77,5.62,10.4,8.28A183.53,183.53,0,0,0,211,224.29c3.77,2,7.45,3.83,11.21,5.53a8.52,8.52,0,0,0,6.61.17c1.77-.69,3.56-1.42,5.35-2.16a4.28,4.28,0,0,0,2.5-5c-.07-.26-.12-.47-.15-.59a191.34,191.34,0,0,1-4.8-41.18h0c0-.18,0-.35,0-.53,0-.8,0-1.61,0-2.41,0-.26,0-.69,0-1v-.3h0c0-.92,0-1.84,0-2.76q.08-3.8.27-7.51h0c.91-17.73,3.92-34.39,8.7-48.41a2.47,2.47,0,0,0-1.55-3.14c-1.26-.44-2.52-.85-3.79-1.24a2.46,2.46,0,0,0-3.07,1.55c-5.18,15.22-8.38,33.28-9.23,52.39a7.21,7.21,0,0,1-3.52,5.87,269.64,269.64,0,0,0-30.69,21,5,5,0,0,1-6.35-.13,121.17,121.17,0,0,1-22.3-25.07c-11.25-17.28-13.93-33.56-7.53-45.83l.05-.08c.82-1.36,1.66-2.69,2.55-4,7.35-9.73,21-15.37,39.19-16,1.14,0,2.3-.06,3.47-.06a128.44,128.44,0,0,1,35.23,5.34h0l.8.24.61.17h0c2.81.84,5.63,1.76,8.45,2.78h0l.2.07,2.2.81.69.27.66.25h0a179.39,179.39,0,0,1,17.72,8,169.54,169.54,0,0,1,30.73,20.37C278,145.67,258,153.29,237.85,163.55a3,3,0,0,0-1.6,2.45c-.07,1.25-.16,3.76-.23,5.75a1.64,1.64,0,0,0,2.39,1.5h0c19.93-10.46,39.83-18.29,56.91-22.42a6.39,6.39,0,0,0,4.82-7.1q-.48-3.41-1.06-6.71a11.22,11.22,0,0,0-4.24-6.93,181.47,181.47,0,0,0-26.26-16.59,183.91,183.91,0,0,0-19.29-8.67,2.43,2.43,0,0,1-1.25-3.46c6.66-11.92,14.59-18.6,22.31-18.6h.24c9.11.16,18.19,9.65,24.92,26A136.28,136.28,0,0,1,303.38,137l0,0q1.15,6.65,1.85,13.72l-.12.07.16.16a213.47,213.47,0,0,1,.94,24.49c-.1,5.3-.38,10.53-.84,15.64a276.76,276.76,0,0,1-43.82,28.43c-5.44,2.89-10.88,5.57-16.27,8l-.25.12-1.24.56h0c-4.46,2-8.89,3.89-13.24,5.6h0l-.74.28-.92.36-2.18.83-.6.22c-.88.33-1.75.65-2.63,1l-.32.12h0a182.93,182.93,0,0,1-26.3,7.39C177.28,247.74,168.07,244.86,166,240.9Zm26.95-38.17a256.37,256.37,0,0,1,30-20.77,201.13,201.13,0,0,0,4.57,40.28q-6.19-2.64-12.34-5.82A175.64,175.64,0,0,1,192.92,202.73Zm56.87,68.91a100.63,100.63,0,0,1-12.68.81A97.67,97.67,0,0,1,184,256.92a1.32,1.32,0,0,1,.66-2.43l.74,0a104.94,104.94,0,0,0,13.1-1.76,200.47,200.47,0,0,0,33-9.74,2.07,2.07,0,0,1,2.65,1.16v0c4.55,11.07,10.15,19.44,16.43,24.76A1.57,1.57,0,0,1,249.79,271.64Zm41.58-26.26c-7,13.8-15.67,21.56-24.05,21.4-9.11-.16-18.19-9.65-24.92-26v0a2.08,2.08,0,0,1,1.1-2.68l.21-.09a2,2,0,0,1,1.4-.1,136.62,136.62,0,0,0,36.6,5.38c1.26,0,2.51,0,3.76-.07q2.18-.08,4.29-.24A1.68,1.68,0,0,1,291.37,245.38Zm3-11.88a86,86,0,0,1-9.25.81,114.57,114.57,0,0,1-24.77-2,1.11,1.11,0,0,1-.3-2.08c1.87-.94,3.73-1.91,5.6-2.9a303.8,303.8,0,0,0,36-22.3,1.1,1.1,0,0,1,1.74,1.08,159.38,159.38,0,0,1-6.11,24.92A3.66,3.66,0,0,1,294.4,233.5Zm14.51,7.8c-.74.79-1.49,1.57-2.26,2.34q-2,2-4.12,3.89a1.1,1.1,0,0,1-1.72-1.28c.14-.3.29-.61.43-.92q.88-2,1.71-4a1.12,1.12,0,0,1,.74-.65q2.1-.52,4.08-1.17A1.09,1.09,0,0,1,308.91,241.3Zm19.77-31.2c-.48,1.2-1,2.4-1.49,3.58l-.24.49c-3.24,6.24-8.68,11.16-16,14.58a2.11,2.11,0,0,1-2.93-2.46,187.54,187.54,0,0,0,5.43-27.84,7.36,7.36,0,0,1,2.52-4.72c3-2.59,5.78-5.18,8.35-7.74l0,0a2.36,2.36,0,0,1,3.93,1C330.86,195.39,331,203.25,328.68,210.1Zm2-46.08a2,2,0,0,1-3.43.11c-.13-.19-.25-.39-.38-.59a116.84,116.84,0,0,0-10.08-13.22,1.63,1.63,0,0,1,1.23-2.71h0c8.81,0,13.43,2.17,14.84,4.83C334,154.66,333.68,158.55,330.65,164Zm4.76,13a.62.62,0,0,1-1.19.23l-.34-.79A1.46,1.46,0,0,1,334,175c.07-.08.2-.26.36-.47.43-.56,1.05-.48,1.05.15C335.45,175.48,335.43,176.18,335.41,177Zm312.07-23.25h37a5.55,5.55,0,0,0,5.49-6.21,5.63,5.63,0,0,0-5.64-4.86H638.35a5.55,5.55,0,0,0-5.53,5.54v55.31a5.55,5.55,0,0,0,5.53,5.53h46.1a5.54,5.54,0,0,0,5.49-6.2A5.63,5.63,0,0,0,684.3,198H647.48a3.59,3.59,0,0,1-3.59-3.59V185a3.58,3.58,0,0,1,3.59-3.59h27.75a5.55,5.55,0,0,0,5.49-6.21,5.63,5.63,0,0,0-5.64-4.86h-27.6a3.59,3.59,0,0,1-3.59-3.59v-9.41A3.59,3.59,0,0,1,647.48,153.77Zm113,21.48c-5.07-3.23-11.89-4.89-20.47-4.89-11.34,0-17-2.76-17-8.3s5.71-8.29,17-8.29a47.74,47.74,0,0,1,18,3.5c3.32,1,5.63-.18,6.92-3.41,1.1-2.86-.37-5.62-3.41-7A53.32,53.32,0,0,0,740,142.7c-8.39,0-15.12,1.76-20.37,5.17a16.19,16.19,0,0,0-7.74,14.19c0,6.37,2.58,11.25,7.65,14.48s11.89,4.89,20.46,4.89c11.34,0,17.06,2.76,17.06,8.29S751.35,198,740,198h-2.76a51.41,51.41,0,0,1-17.89-3.5,5.38,5.38,0,0,0-7,3.32,5.65,5.65,0,0,0,3.41,7.19,54.8,54.8,0,0,0,21.48,4.05H740c8.39,0,15.12-1.75,20.29-5.16a16.09,16.09,0,0,0,7.83-14.2C768.13,183.36,765.55,178.47,760.48,175.25ZM871.16,142.7a5.55,5.55,0,0,0-5.53,5.54v55.31a5.53,5.53,0,0,0,11.06,0V148.24A5.55,5.55,0,0,0,871.16,142.7Zm-29.23,0H786.76a5.55,5.55,0,0,0-5.49,6.21,5.64,5.64,0,0,0,5.64,4.86h18.37a3.61,3.61,0,0,1,3.61,3.6v46.18a5.54,5.54,0,0,0,6.2,5.49A5.62,5.62,0,0,0,820,203.4v-46a3.6,3.6,0,0,1,3.6-3.6h18.53a5.55,5.55,0,0,0,5.49-6.21A5.64,5.64,0,0,0,841.93,142.7ZM609.17,198H572.36a3.61,3.61,0,0,1-3.61-3.61v-46a5.63,5.63,0,0,0-4.86-5.64,5.54,5.54,0,0,0-6.2,5.5v55.31a5.55,5.55,0,0,0,5.53,5.53h46.1a5.54,5.54,0,0,0,5.49-6.2A5.63,5.63,0,0,0,609.17,198ZM428.91,153.77a21,21,0,0,1,15.58,6.54,5.49,5.49,0,0,0,4,1.57,5.55,5.55,0,0,0,5.53-5.53,5.9,5.9,0,0,0-2.3-4.43,32.94,32.94,0,0,0-46.28.56,31.91,31.91,0,0,0-9.68,23.41,33.05,33.05,0,0,0,33.18,33.19,31.92,31.92,0,0,0,23.42-9.68,5.54,5.54,0,0,0-7.84-7.83A21.15,21.15,0,0,1,428.91,198a22.13,22.13,0,0,1,0-44.25Zm63.61,0h37a5.55,5.55,0,0,0,5.49-6.21,5.64,5.64,0,0,0-5.64-4.86h-46a5.55,5.55,0,0,0-5.53,5.54v55.31a5.55,5.55,0,0,0,5.53,5.53h46.1a5.54,5.54,0,0,0,5.49-6.2,5.63,5.63,0,0,0-5.64-4.86H492.52a3.61,3.61,0,0,1-3.61-3.6V185a3.61,3.61,0,0,1,3.61-3.6h27.74a5.55,5.55,0,0,0,5.49-6.21,5.64,5.64,0,0,0-5.64-4.86H492.52a3.61,3.61,0,0,1-3.61-3.6v-9.39A3.61,3.61,0,0,1,492.52,153.77Z"/><circle class="cls-1" cx="1011.78" cy="176.1" r="6.64"/><path class="cls-1" d="M1061.61,148.68a5.49,5.49,0,0,1,5.48-5.48h23.38a32.87,32.87,0,0,1,22.65,56.16,31.64,31.64,0,0,1-23.2,9.59h-22.83a5.49,5.49,0,0,1-5.48-5.48Zm11,5.48V198h17.35a21,21,0,0,0,15.43-6.39,22,22,0,0,0-15.43-37.44Z"/><path class="cls-1" d="M1135.58,176.08a32.88,32.88,0,1,1,56.07,23.28,31.63,31.63,0,0,1-23.2,9.59,32.74,32.74,0,0,1-32.87-32.87Zm11,0a22,22,0,1,0,6.39-15.44A21.17,21.17,0,0,0,1146.54,176.08Z"/><path class="cls-1" d="M1271.37,152.33a5.81,5.81,0,0,1,2.28,4.38,5.49,5.49,0,0,1-5.48,5.48,5.4,5.4,0,0,1-3.92-1.55,20.77,20.77,0,0,0-15.44-6.48,21.24,21.24,0,0,0-15.52,6.48,21.89,21.89,0,0,0,31,31,5.49,5.49,0,1,1,7.76,7.76,31.63,31.63,0,0,1-23.2,9.59,32.73,32.73,0,0,1-32.87-32.87,32.75,32.75,0,0,1,55.43-23.75Z"/><path class="cls-1" d="M1317.39,198c11.23,0,16.9-2.74,16.9-8.22s-5.67-8.22-16.9-8.22c-8.49,0-15.25-1.64-20.27-4.84s-7.58-8-7.58-14.33a16,16,0,0,1,7.67-14.07c5.2-3.38,11.87-5.11,20.18-5.11a52.63,52.63,0,0,1,21.28,4.11c3,1.37,4.47,4.11,3.38,6.94-1.28,3.2-3.56,4.38-6.85,3.38a47.08,47.08,0,0,0-17.81-3.47c-11.23,0-16.89,2.74-16.89,8.22s5.66,8.22,16.89,8.22c8.49,0,15.25,1.64,20.27,4.84s7.58,8,7.58,14.33a15.93,15.93,0,0,1-7.76,14.07c-5.11,3.38-11.78,5.11-20.09,5.11h-2.74a54.22,54.22,0,0,1-21.28-4,5.6,5.6,0,0,1-3.38-7.12,5.35,5.35,0,0,1,6.94-3.29,50.68,50.68,0,0,0,17.72,3.47Z"/></svg>