<?xml version="1.0" encoding="utf-8"?>
<!-- Generator: Adobe Illustrator 26.0.3, SVG Export Plug-In . SVG Version: 6.00 Build 0)  -->
<svg version="1.1" id="Layer_1" xmlns="http://www.w3.org/2000/svg" xmlns:xlink="http://www.w3.org/1999/xlink" x="0px" y="0px"
	 viewBox="0 0 2046.5 1500" style="enable-background:new 0 0 2046.5 1500;" xml:space="preserve">
<style type="text/css">
	.st0{opacity:0.36;fill:#7C12FC;}
	.st1{fill:none;stroke:#000000;stroke-width:2;stroke-miterlimit:10;}
	.st2{fill:url(#SVGID_1_);}
	.st3{fill:url(#SVGID_00000028294522363388751360000012250418282618789765_);}
	.st4{fill:url(#SVGID_00000048479753939475840760000017550807943910184374_);}
	.st5{fill:url(#SVGID_00000121994383098670590380000010174258077558096528_);}
</style>
<g>
	<polygon class="st0" points="748.4,540.4 695.7,630.4 912.3,630.3 930.5,540.4 	"/>
	<polygon class="st0" points="1504.9,874.6 1604.9,1044.3 1983.5,1043.5 1814.6,874.6 	"/>
	<polygon class="st0" points="890.5,737.9 862.8,874.6 1193.8,874.2 1166.2,737.9 	"/>
	<g>
		
			<image style="overflow:visible;" width="8343" height="2692" xlink:href="FFA52A478C21003B.png"  transform="matrix(0.24 0 0 0.24 22.0466 438.08)">
		</image>
	</g>
	<g>
		<polygon class="st1" points="63,1047.7 632.6,478 1418,478 1983.5,1043.5 		"/>
		<line class="st1" x1="785.5" y1="478" x2="450.4" y2="1046.8"/>
		<line class="st1" x1="943.1" y1="478" x2="828.1" y2="1046"/>
		<line class="st1" x1="1271.2" y1="478" x2="1604.9" y2="1044.3"/>
		<line class="st1" x1="1113.5" y1="478" x2="1228.4" y2="1045.1"/>
		<line class="st1" x1="236" y1="874.6" x2="1814.6" y2="874.6"/>
		<line class="st1" x1="480.4" y1="630.3" x2="1570.8" y2="630.3"/>
		<line class="st1" x1="570.2" y1="540.4" x2="1479.9" y2="540.4"/>
		<line class="st1" x1="372.8" y1="737.9" x2="1678.1" y2="737.9"/>
	</g>
	<g>
		
			<image style="overflow:visible;" width="4187" height="3220" xlink:href="FFA52A478C210039.png"  transform="matrix(0.24 0 0 0.24 479.4865 395.6)">
		</image>
	</g>
	<g>
		
			<radialGradient id="SVGID_1_" cx="4492.2529" cy="2305.2141" r="241.2967" gradientTransform="matrix(0.2124 0.9772 0.9772 -0.2124 -2634.9944 -2962.5449)" gradientUnits="userSpaceOnUse">
			<stop  offset="4.340278e-03" style="stop-color:#FFFFFF"/>
			<stop  offset="0.309" style="stop-color:#FFE3E0"/>
			<stop  offset="0.5563" style="stop-color:#FFCAC3"/>
			<stop  offset="1" style="stop-color:#FF5EDA"/>
		</radialGradient>
		<path class="st2" d="M625.1,1124.7c25.5,8.2,53.5,10,81.5,3.9c85-18.5,139-102.4,120.5-187.4s-102.4-139-187.4-120.5
			s-139,102.4-120.5,187.4C531.6,1065,573.3,1108,625.1,1124.7"/>
		
			<radialGradient id="SVGID_00000029759969594532370590000011253380881503998376_" cx="4355.0859" cy="2984.0476" r="166.0977" gradientTransform="matrix(0.2124 0.9772 0.9772 -0.2124 -2634.9944 -2962.5449)" gradientUnits="userSpaceOnUse">
			<stop  offset="4.340278e-03" style="stop-color:#FFFFFF"/>
			<stop  offset="0.309" style="stop-color:#FFE3E0"/>
			<stop  offset="0.5563" style="stop-color:#FFCAC3"/>
			<stop  offset="1" style="stop-color:#FF5EDA"/>
		</radialGradient>
		<path style="fill:url(#SVGID_00000029759969594532370590000011253380881503998376_);" d="M1242.7,788.1
			c17.6,5.6,36.8,6.9,56.1,2.7c58.5-12.7,95.7-70.5,82.9-129c-12.7-58.5-70.5-95.7-129-82.9c-58.5,12.7-95.7,70.5-82.9,129
			C1178.3,747.1,1207.1,776.7,1242.7,788.1"/>
		
			<radialGradient id="SVGID_00000119115501431567935380000014951001229648471453_" cx="4130.936" cy="2381.7029" r="120.6643" gradientTransform="matrix(0.2124 0.9772 0.9772 -0.2124 -2634.9944 -2962.5449)" gradientUnits="userSpaceOnUse">
			<stop  offset="4.340278e-03" style="stop-color:#FFFFFF"/>
			<stop  offset="0.309" style="stop-color:#FFE3E0"/>
			<stop  offset="0.5563" style="stop-color:#FFCAC3"/>
			<stop  offset="1" style="stop-color:#FF5EDA"/>
		</radialGradient>
		<path style="fill:url(#SVGID_00000119115501431567935380000014951001229648471453_);" d="M596.4,661.8c12.8,4.1,26.7,5,40.8,1.9
			c42.5-9.2,69.5-51.2,60.3-93.7s-51.2-69.5-93.7-60.3s-69.5,51.2-60.3,93.7C549.7,632,570.6,653.5,596.4,661.8"/>
		
			<radialGradient id="SVGID_00000105396376137621559060000000984873910803639169_" cx="4213.5884" cy="3138.2725" r="113.2974" gradientTransform="matrix(0.2124 0.9772 0.9772 -0.2124 -2634.9944 -2962.5449)" gradientUnits="userSpaceOnUse">
			<stop  offset="4.340278e-03" style="stop-color:#FFFFFF"/>
			<stop  offset="0.309" style="stop-color:#FFE3E0"/>
			<stop  offset="0.5563" style="stop-color:#FFCAC3"/>
			<stop  offset="1" style="stop-color:#FF5EDA"/>
		</radialGradient>
		<path style="fill:url(#SVGID_00000105396376137621559060000000984873910803639169_);" d="M1351.7,576.2c12,3.9,25.1,4.7,38.3,1.8
			c39.9-8.7,65.3-48.1,56.6-88c-8.7-39.9-48.1-65.3-88-56.6c-39.9,8.7-65.3,48.1-56.6,88C1307.8,548.2,1327.4,568.4,1351.7,576.2"/>
	</g>
	<line class="st1" x1="384.7" y1="1047" x2="885.3" y2="1045.9"/>
	<line class="st1" x1="998.7" y1="737.9" x2="1495.1" y2="737.9"/>
	<line class="st1" x1="1271.2" y1="540.4" x2="1471.2" y2="540.4"/>
	<line class="st1" x1="738.3" y1="630.3" x2="487.2" y2="630.3"/>
</g>
</svg>
