<svg width="842" height="215" viewBox="0 0 842 215" fill="none" xmlns="http://www.w3.org/2000/svg">
<path d="M840.5 134L808.5 78.5C806.9 75.9 803.4 75 800.8 76.6C800 77.1 799.4 77.7 798.9 78.5L766.9 134C766.5 134.7 766.3 135.4 766.3 136.2C766.1 139.3 768.4 142 771.5 142.2H771.6C773.8 142.2 775.5 141.1 776.8 138.8L781.7 130.2C782.4 129.1 783.6 128.4 784.9 128.4H822.3C823.6 128.4 824.8 129.1 825.4 130.2L830.4 138.8C831.6 141 833.3 142.1 835.4 142.2C838.5 142.3 841 139.9 841.1 136.8V136.7C841.2 135.7 840.9 134.8 840.5 134ZM813.8 117.3H793.5C792.1 117.3 791 116.2 791 114.8C791 114.4 791.1 114 791.3 113.6L801.5 96C802.2 94.8 803.7 94.4 804.9 95.1C805.3 95.3 805.6 95.6 805.8 96L815.9 113.6C816.6 114.8 816.2 116.3 815 117C814.7 117.2 814.3 117.3 813.8 117.3ZM213.2 84.9C200.9 27 143.9 -9.99999 86 2.40001C65.7 6.70001 47.2 16.8 32.5 31.4C27.6 36.3 23.2 41.6 19.4 47.3C18.3 48.8 17.3 50.4 16.4 52.1C-14.2 102.8 2.19999 168.8 52.9 199.3C103.6 229.8 169.6 213.5 200.1 162.8C202.5 158.8 204.6 154.7 206.5 150.5C207.1 149.2 207.7 147.8 208.2 146.4C215.8 126.9 217.5 105.7 213.3 85.3L213.2 84.9ZM176 35.9C176.6 36.5 177.2 37.1 177.8 37.7C187.1 47 194.5 58.1 199.5 70.3C199.8 71.1 199.4 72.1 198.6 72.5C198.3 72.6 198 72.7 197.7 72.6C194.6 72.1 191.4 71.8 188.2 71.9C185.8 71.9 183.7 70.2 183.2 67.8C181.5 57.8 178.7 48 175 38.5C174.8 38 174.6 37.5 174.4 37C174.1 36.5 174.2 35.9 174.6 35.5C175 35.1 175.7 35.4 176 35.9ZM186.2 98.8C186.2 98.2 186.7 97.6 187.3 97.6C187.7 97.6 188 97.8 188.3 98.1C189.1 99.2 189.9 100.4 190.6 101.5C191.6 103 192.5 104.5 193.4 106C193.9 106.9 193.8 108.1 193.1 108.9C192 110.2 190.7 111.5 189.3 112.8L187.8 114.3C187.4 114.7 186.8 114.6 186.4 114.2C186.2 114 186.1 113.8 186.1 113.5C186.2 111.9 186.2 110.3 186.2 108.6C186.3 105.4 186.3 102.1 186.2 98.8ZM51.2 27.1C67.9 15.2 87.9 8.80001 108.3 8.90001C113.7 8.90001 119.1 9.30001 124.5 10.2C125.4 10.3 126 11.2 125.9 12.1C125.8 12.5 125.6 12.9 125.3 13.1C120.2 17.1 115.4 23.1 111.2 30.8C110.2 32.7 108 33.6 105.9 33C92.8 29.2 79.1 27.4 65.4 27.7C60.9 27.8 56.5 28.3 52.1 29.1C51.5 29.2 50.9 28.8 50.8 28.2C50.7 27.8 50.9 27.4 51.2 27.1ZM37.2 174C35.1 170.1 37.8 161.1 51.4 147.3C52.7 146 52.7 143.8 51.3 142.5C51.2 142.4 51.1 142.4 51.1 142.3L49.5 141C48.2 139.9 46.2 140 45 141.2L44.5 141.7C37.7 148.7 33 155.1 30.3 160.9C29.7 162.1 28.4 162.5 27.2 162C26.8 161.8 26.5 161.6 26.3 161.2C15.6 145.3 9.99999 126.5 9.99999 107.3C9.99999 100.4 10.7 93.5 12.1 86.8C12.2 86.3 12.8 85.9 13.3 86C13.6 86.1 13.9 86.3 14 86.7C16.3 94.1 19.7 101 23.9 107.5C30.6 117.6 38.7 126.7 47.9 134.5C51.2 137.4 54.7 140.1 58.3 142.8C65.8 148.3 73.8 153.2 82.1 157.5C85.9 159.5 89.5 161.3 93.3 163C95.4 163.9 97.8 164 99.9 163.2C101.7 162.5 103.5 161.8 105.3 161C107.3 160.2 108.3 158.1 107.8 156C107.7 155.7 107.7 155.5 107.7 155.4C104.6 141.9 103 128.1 102.9 114.2C102.9 114 102.9 113.8 102.9 113.7C102.9 112.9 102.9 112.1 102.9 111.3C102.9 111 102.9 110.6 102.9 110.3V110C102.9 109.1 102.9 108.2 102.9 107.2C103 104.7 103 102.2 103.2 99.7C104.1 82 107.1 65.3 111.9 51.3C112.3 50 111.7 48.6 110.4 48.2C109.1 47.8 107.9 47.4 106.6 47C105.3 46.6 104 47.3 103.5 48.6C98.3 63.8 95.1 81.9 94.3 101C94.2 103.4 92.9 105.6 90.8 106.9C80.1 113.2 69.8 120.2 60.1 127.9C58.2 129.4 55.6 129.3 53.7 127.8C45.1 120.5 37.6 112.1 31.4 102.7C20.2 85.4 17.5 69.1 23.9 56.9L24 56.8C24.8 55.4 25.7 54.1 26.6 52.8C34 43.1 47.6 37.4 65.8 36.8C66.9 36.8 68.1 36.7 69.3 36.7C81.2 36.8 93.1 38.6 104.5 42L105.3 42.2L105.9 42.4C108.7 43.2 111.5 44.2 114.3 45.2L114.5 45.3L116.7 46.1L117.4 46.4L118.1 46.6C124.1 48.9 130.1 51.6 135.8 54.6C146.8 60.3 157.1 67.1 166.5 75C149.3 79 129.3 86.6 109.1 96.9C108.2 97.4 107.6 98.3 107.5 99.3C107.4 100.5 107.3 103.1 107.3 105.1C107.3 106 108 106.8 108.9 106.8C109.2 106.8 109.4 106.7 109.7 106.6C129.6 96.1 149.5 88.3 166.6 84.2C169.8 83.4 171.9 80.4 171.4 77.1C171.1 74.8 170.7 72.6 170.3 70.4C169.8 67.6 168.3 65.2 166.1 63.5C157.8 57.2 149.1 51.7 139.8 46.9C133.5 43.6 127.1 40.7 120.5 38.2C119.2 37.7 118.6 36.3 119.1 35.1C119.1 35 119.2 34.9 119.3 34.8C126 22.9 133.9 16.2 141.6 16.2H141.8C150.9 16.4 160 25.9 166.7 42.2C170.3 51.3 173 60.8 174.6 70.4C175.4 74.8 176 79.4 176.5 84.1L176.4 84.2L176.6 84.4C177.4 92.5 177.7 100.7 177.5 108.9C177.4 114.2 177.1 119.4 176.7 124.5C163 135.3 148.4 144.9 132.9 152.9C127.5 155.8 122 158.5 116.6 160.9L116.4 161L115.2 161.6C110.7 163.6 106.3 165.5 102 167.2L101.3 167.5L100.4 167.9L98.2 168.7L97.6 168.9C96.7 169.2 95.8 169.5 95 169.9L94.7 170C86.1 173.1 77.3 175.6 68.4 177.4C48.5 180.9 39.3 178 37.2 174ZM64.2 135.9C73.7 128.3 83.7 121.3 94.2 115.1C94.4 128.6 95.9 142.1 98.8 155.4C94.7 153.6 90.6 151.7 86.5 149.6C78.7 145.5 71.2 141 64.2 135.9ZM121.1 204.8C116.9 205.3 112.7 205.6 108.4 205.6C89.6 205.7 71.1 200.3 55.3 190.1C54.7 189.7 54.5 188.9 54.9 188.3C55.1 187.9 55.5 187.7 56 187.7H56.7C61.1 187.4 65.5 186.8 69.8 185.9C81.1 183.6 92.1 180.3 102.8 176.2C103.9 175.8 105 176.3 105.4 177.4C110 188.5 115.5 196.8 121.8 202.2C122.5 202.8 122.5 203.8 121.9 204.4C121.7 204.5 121.4 204.7 121.1 204.8ZM162.6 178.5C155.6 192.3 146.9 200.1 138.6 199.9C129.5 199.7 120.4 190.3 113.7 173.9C113.3 172.9 113.8 171.7 114.8 171.2L115 171.1C115.4 170.9 115.9 170.9 116.4 171C128.3 174.4 140.6 176.3 153 176.4C154.3 176.4 155.5 176.4 156.8 176.3C158.3 176.2 159.7 176.2 161.1 176.1C162 176.1 162.8 176.8 162.8 177.7C162.8 178 162.7 178.3 162.6 178.5ZM165.6 166.6C162.5 167 159.4 167.3 156.4 167.4C148.1 167.6 139.8 167 131.6 165.4C131 165.3 130.6 164.7 130.7 164.1C130.8 163.8 131 163.5 131.3 163.3C133.2 162.4 135 161.4 136.9 160.4C149.4 153.8 161.4 146.4 172.9 138.1C173.4 137.7 174.1 137.8 174.4 138.3C174.6 138.5 174.7 138.9 174.6 139.2C173.2 147.7 171.2 156 168.5 164.1C168.1 165.5 167 166.4 165.6 166.6ZM180.1 174.4C179.4 175.2 178.6 176 177.8 176.7C176.5 178 175.1 179.3 173.7 180.6C173.2 181 172.5 180.9 172.1 180.5C171.8 180.2 171.8 179.7 171.9 179.3C172 179 172.2 178.7 172.3 178.4C172.9 177.1 173.5 175.7 174 174.4C174.1 174.1 174.4 173.8 174.7 173.8C176.1 173.5 177.5 173.1 178.8 172.6C179.4 172.4 180 172.7 180.2 173.3C180.5 173.7 180.4 174.1 180.1 174.4ZM199.9 143.2C199.4 144.4 198.9 145.6 198.4 146.8L198.2 147.3C195 153.5 189.5 158.5 182.2 161.9C181.1 162.4 179.9 161.9 179.4 160.9C179.2 160.4 179.1 159.9 179.3 159.5C181.8 150.4 183.6 141.1 184.7 131.7C184.9 129.9 185.8 128.2 187.2 127C190.2 124.4 193 121.8 195.6 119.3C196.5 118.4 198 118.4 198.9 119.3C199.2 119.6 199.4 119.9 199.5 120.3C202.1 128.5 202.2 136.4 199.9 143.2ZM201.9 97.2C201.4 98.2 200.1 98.5 199.2 98C198.9 97.8 198.7 97.6 198.5 97.3C198.4 97.1 198.3 96.9 198.1 96.7C195.1 92.1 191.7 87.6 188 83.5C187.4 82.8 187.5 81.8 188.1 81.2C188.4 80.9 188.8 80.8 189.2 80.8C198 80.8 202.6 83 204 85.6C205.2 87.8 204.9 91.7 201.9 97.2ZM206.7 110.2C206.7 110.5 206.4 110.8 206.1 110.8C205.9 110.8 205.6 110.6 205.5 110.4L205.2 109.6C205 109.1 205 108.6 205.3 108.1C205.4 108 205.5 107.8 205.7 107.6C206.1 107 206.7 107.1 206.7 107.7C206.7 108.6 206.7 109.3 206.7 110.2ZM518.7 86.9H555.7C558.8 86.9 561.2 84.4 561.2 81.3C561.2 81.1 561.2 80.9 561.2 80.7C560.8 77.9 558.4 75.8 555.6 75.8H509.6C506.5 75.8 504.1 78.3 504.1 81.3V136.6C504.1 139.6 506.6 142.1 509.6 142.1H555.7C558.8 142.1 561.2 139.6 561.2 136.5C561.2 136.3 561.2 136.1 561.2 135.9C560.8 133.1 558.4 131 555.6 131H518.8C516.8 131 515.2 129.4 515.2 127.4V118C515.2 116 516.8 114.4 518.8 114.4H546.6C549.7 114.4 552.1 111.9 552.1 108.8C552.1 108.6 552.1 108.4 552.1 108.2C551.7 105.4 549.3 103.3 546.5 103.3H518.9C516.9 103.3 515.3 101.7 515.3 99.7V90.3C515.1 88.5 516.7 86.9 518.7 86.9ZM631.7 108.4C626.6 105.2 619.8 103.5 611.2 103.5C599.9 103.5 594.2 100.7 594.2 95.2C594.2 89.7 599.9 86.9 611.2 86.9C617.4 86.9 623.5 88.1 629.2 90.4C632.5 91.4 634.8 90.2 636.1 87C637.2 84.1 635.7 81.4 632.7 80C625.9 77.1 618.5 75.7 611.1 75.8C602.7 75.8 596 77.6 590.7 81C585.8 84 582.8 89.4 583 95.2C583 101.6 585.6 106.4 590.7 109.7C595.8 113 602.6 114.6 611.2 114.6C622.5 114.6 628.3 117.4 628.3 122.9C628.3 128.4 622.6 131.2 611.2 131.2H608.4C602.3 131.1 596.2 129.9 590.5 127.7C587.7 126.7 584.6 128.1 583.6 130.8C583.6 130.9 583.6 130.9 583.5 131C582.5 133.9 584 137.1 586.9 138.2C593.7 141 601 142.4 608.4 142.3H611.2C619.6 142.3 626.3 140.5 631.5 137.1C636.5 134.1 639.5 128.7 639.3 122.9C639.4 116.5 636.8 111.6 631.7 108.4ZM742.4 75.8C739.3 75.8 736.9 78.3 736.9 81.3V136.6C736.9 139.7 739.4 142.1 742.4 142.1C745.5 142.1 747.9 139.6 747.9 136.6V81.4C747.9 78.3 745.4 75.8 742.4 75.8ZM713.2 75.8H658C654.9 75.8 652.5 78.3 652.5 81.4C652.5 81.6 652.5 81.8 652.5 82C652.9 84.8 655.3 86.9 658.1 86.9H676.5C678.5 86.9 680.1 88.5 680.1 90.5V136.7C680.1 139.8 682.6 142.2 685.7 142.2C685.9 142.2 686.1 142.2 686.3 142.2C689.1 141.8 691.2 139.4 691.2 136.6V90.6C691.2 88.6 692.8 87 694.8 87H713.3C716.4 87 718.8 84.5 718.8 81.4C718.8 81.2 718.8 81 718.8 80.8C718.5 77.9 716 75.8 713.2 75.8ZM480.4 131.1H443.6C441.6 131.1 440 129.5 440 127.5V81.5C440 78.7 437.9 76.2 435.1 75.9C432.1 75.5 429.3 77.7 428.9 80.7C428.9 80.9 428.9 81.1 428.9 81.4V136.7C428.9 139.7 431.4 142.2 434.4 142.2H480.5C483.6 142.2 486 139.7 486 136.6C486 136.4 486 136.2 486 136C485.7 133.2 483.3 131.1 480.4 131.1ZM300.1 86.9C306 86.8 311.6 89.2 315.7 93.4C316.8 94.4 318.2 95 319.7 95C322.7 95 325.2 92.5 325.2 89.5C325.1 87.8 324.3 86.1 322.9 85.1C309.9 72.6 289.3 72.8 276.6 85.7C270.3 91.8 266.8 100.3 266.9 109.1C266.8 127.4 281.6 142.2 299.8 142.3C299.9 142.3 300 142.3 300.1 142.3C308.9 142.4 317.4 138.9 323.5 132.6C325.7 130.4 325.7 126.9 323.5 124.8C321.3 122.6 317.8 122.6 315.7 124.8C311.6 129 306 131.3 300.1 131.2C287.9 130.9 278.2 120.8 278.4 108.6C278.7 96.7 288.3 87.1 300.1 86.9ZM363.8 86.9H400.8C403.9 86.9 406.3 84.4 406.3 81.3C406.3 81.1 406.3 80.9 406.3 80.7C405.9 77.9 403.5 75.8 400.7 75.8H354.7C351.6 75.8 349.2 78.3 349.2 81.3V136.6C349.2 139.6 351.7 142.1 354.7 142.1H400.8C403.9 142.1 406.3 139.6 406.3 136.5C406.3 136.3 406.3 136.1 406.3 135.9C405.9 133.1 403.5 131 400.7 131H363.9C361.9 131 360.3 129.4 360.3 127.4V118C360.3 116 361.9 114.4 363.9 114.4H391.6C394.7 114.4 397.1 111.9 397.1 108.8C397.1 108.6 397.1 108.4 397.1 108.2C396.7 105.4 394.3 103.3 391.5 103.3H363.9C361.9 103.3 360.3 101.7 360.3 99.7V90.3C360.2 88.5 361.8 86.9 363.8 86.9Z" fill="#7B2BF9"/>
<path d="M644 172.818C644 170.735 645.735 169 647.818 169H664.061C676.694 169.208 686.69 179.62 686.482 192.184C686.412 198.154 683.983 203.777 679.748 208.011C675.514 212.384 669.683 214.744 663.644 214.675H647.818C645.735 214.675 644 212.939 644 210.857V172.818ZM651.636 176.636V207.039H663.644C667.67 207.109 671.558 205.512 674.334 202.597C680.234 196.558 680.165 186.909 674.195 181.009C671.349 178.232 667.601 176.636 663.644 176.636H651.636Z" fill="#7B2BF9"/>
<path d="M695.367 191.837C695.367 179.204 705.571 169 718.204 169C730.838 169 741.041 179.204 741.041 191.837C741.041 197.946 738.612 203.777 734.308 208.011C730.074 212.384 724.243 214.744 718.204 214.675C705.64 214.744 695.436 204.61 695.367 192.046C695.367 191.976 695.367 191.907 695.367 191.837ZM703.002 191.837C703.002 200.306 709.805 207.109 718.204 207.178C726.673 207.178 733.475 200.375 733.545 191.976C733.545 183.508 726.742 176.705 718.343 176.636C714.247 176.636 710.36 178.232 707.445 181.148C704.529 183.924 702.933 187.811 703.002 191.837Z" fill="#7B2BF9"/>
<path d="M789.632 175.386C790.603 176.08 791.159 177.26 791.228 178.44C791.228 180.523 789.493 182.258 787.41 182.258C786.369 182.258 785.397 181.911 784.703 181.148C781.927 178.232 778.039 176.566 774.013 176.636C769.987 176.566 766.031 178.232 763.254 181.148C757.284 187.117 757.284 196.696 763.254 202.666C769.224 208.636 778.803 208.636 784.773 202.666C786.23 201.139 788.59 201.069 790.187 202.458C791.714 203.915 791.783 206.276 790.395 207.872C790.326 207.942 790.256 208.011 790.187 208.08C785.953 212.453 780.122 214.814 774.083 214.744C761.519 214.814 751.315 204.679 751.245 192.115C751.245 192.046 751.245 191.976 751.245 191.907C751.176 179.343 761.311 169.139 773.875 169.069C779.705 169 785.397 171.291 789.632 175.386Z" fill="#7B2BF9"/>
<path d="M821.562 207.039C829.337 207.039 833.293 205.165 833.293 201.347C833.293 197.529 829.337 195.655 821.562 195.655C815.662 195.655 811.011 194.545 807.471 192.323C803.931 190.102 802.196 186.77 802.196 182.397C802.126 178.44 804.139 174.692 807.541 172.61C811.15 170.249 815.801 169.069 821.562 169.069C826.629 169 831.627 169.972 836.348 171.915C838.43 172.887 839.471 174.761 838.708 176.705C837.805 178.926 836.209 179.759 833.987 179.065C830.031 177.469 825.866 176.636 821.632 176.636C813.857 176.636 809.901 178.51 809.901 182.328C809.901 186.145 813.857 188.02 821.632 188.02C827.532 188.02 832.183 189.13 835.723 191.351C839.263 193.573 840.998 196.905 840.998 201.278C841.068 205.234 839.055 208.983 835.584 211.065C832.044 213.425 827.393 214.605 821.632 214.605H819.757C814.69 214.675 809.692 213.772 804.972 211.829C802.959 211.135 801.918 208.913 802.612 206.9C803.306 204.957 805.389 203.916 807.332 204.61C807.402 204.61 807.402 204.61 807.471 204.679C811.428 206.206 815.593 207.039 819.757 207.109L821.562 207.039Z" fill="#7B2BF9"/>
</svg>
