<svg width="840" height="215" viewBox="0 0 840 215" fill="none" xmlns="http://www.w3.org/2000/svg">
<path d="M839.381 134.205L807.386 78.6179C805.786 76.0138 802.286 75.1123 799.687 76.7149C798.887 77.2157 798.287 77.8166 797.787 78.6179L765.792 134.205C765.392 134.907 765.192 135.608 765.192 136.409C764.992 139.514 767.292 142.218 770.391 142.418H770.491C772.691 142.418 774.391 141.317 775.691 139.013L780.59 130.399C781.29 129.298 782.49 128.597 783.789 128.597H821.184C822.483 128.597 823.683 129.298 824.283 130.399L829.282 139.013C830.482 141.216 832.182 142.318 834.282 142.418C837.381 142.518 839.881 140.115 839.981 137.01V136.91C840.081 135.908 839.781 135.007 839.381 134.205ZM812.685 117.479H792.388C790.988 117.479 789.888 116.377 789.888 114.975C789.888 114.574 789.988 114.174 790.188 113.773L800.387 96.1455C801.087 94.9436 802.587 94.5429 803.786 95.2441C804.186 95.4444 804.486 95.7448 804.686 96.1455L814.785 113.773C815.485 114.975 815.085 116.477 813.885 117.179C813.585 117.379 813.185 117.479 812.685 117.479ZM212.179 85.028C199.881 27.0366 142.889 -10.0217 84.9985 2.39783C64.7017 6.70462 46.2046 16.8205 31.5068 31.4436C26.6076 36.3513 22.2083 41.6597 18.4089 47.3687C17.3091 48.871 16.3092 50.4735 15.4094 52.1762C-15.1859 102.956 1.21158 169.06 51.9037 199.608C102.596 230.157 168.585 213.831 199.081 163.051C201.48 159.045 203.58 154.938 205.48 150.731C206.08 149.429 206.679 148.027 207.179 146.625C214.778 127.094 216.478 105.861 212.279 85.4286L212.179 85.028ZM174.984 35.9507C175.584 36.5516 176.184 37.1526 176.784 37.7535C186.083 47.0682 193.482 58.1857 198.481 70.4049C198.781 71.2062 198.381 72.2078 197.581 72.6084C197.281 72.7086 196.981 72.8087 196.681 72.7086C193.582 72.2078 190.382 71.9073 187.183 72.0075C184.783 72.0075 182.683 70.3048 182.183 67.901C180.484 57.8852 177.684 48.0698 173.985 38.5548C173.785 38.054 173.585 37.5532 173.385 37.0524C173.085 36.5516 173.185 35.9507 173.585 35.55C173.985 35.1494 174.684 35.4499 174.984 35.9507ZM185.183 98.9499C185.183 98.3489 185.683 97.748 186.283 97.748C186.683 97.748 186.983 97.9483 187.283 98.2488C188.082 99.3505 188.882 100.552 189.582 101.654C190.582 103.157 191.482 104.659 192.382 106.161C192.882 107.063 192.782 108.265 192.082 109.066C190.982 110.368 189.682 111.67 188.282 112.972L186.783 114.474C186.383 114.875 185.783 114.775 185.383 114.374C185.183 114.174 185.083 113.974 185.083 113.673C185.183 112.071 185.183 110.468 185.183 108.765C185.283 105.56 185.283 102.255 185.183 98.9499ZM50.2039 27.1368C66.9013 15.218 86.8982 8.80793 107.295 8.90809C112.694 8.90809 118.093 9.30872 123.492 10.2101C124.392 10.3103 124.992 11.2117 124.892 12.1131C124.792 12.5138 124.592 12.9144 124.292 13.1147C119.193 17.121 114.394 23.1305 110.195 30.8426C109.195 32.7456 106.995 33.647 104.895 33.0461C91.7974 29.2401 78.0996 27.4373 64.4017 27.7377C59.9024 27.8379 55.5031 28.3387 51.1038 29.1399C50.5039 29.2401 49.904 28.8395 49.804 28.2385C49.704 27.8379 49.904 27.4373 50.2039 27.1368ZM36.2061 174.269C34.1064 170.362 36.806 161.348 50.4039 147.526C51.7037 146.224 51.7037 144.021 50.3039 142.719C50.2039 142.619 50.1039 142.619 50.1039 142.519L48.5042 141.216C47.2044 140.115 45.2047 140.215 44.0049 141.417L43.505 141.918C36.706 148.929 32.0068 155.339 29.3072 161.148C28.7073 162.35 27.4075 162.75 26.2077 162.25C25.8077 162.049 25.5078 161.849 25.3078 161.448C14.6095 145.523 9.01036 126.694 9.01036 107.463C9.01036 100.552 9.71025 93.6415 11.11 86.931C11.21 86.4302 11.8099 86.0295 12.3098 86.1297C12.6098 86.2299 12.9097 86.4302 13.0097 86.8308C15.3094 94.2425 18.7088 101.153 22.9082 107.664C29.6071 117.78 37.7059 126.894 46.9044 134.706C50.2039 137.611 53.7034 140.315 57.3028 143.019C64.8016 148.528 72.8004 153.436 81.0991 157.742C84.8985 159.746 88.498 161.548 92.2974 163.251C94.397 164.153 96.7967 164.253 98.8963 163.451C100.696 162.75 102.496 162.049 104.295 161.248C106.295 160.447 107.295 158.343 106.795 156.24C106.695 155.94 106.695 155.739 106.695 155.639C103.596 142.118 101.996 128.296 101.896 114.374C101.896 114.174 101.896 113.974 101.896 113.873C101.896 113.072 101.896 112.271 101.896 111.47C101.896 111.169 101.896 110.768 101.896 110.468V110.168C101.896 109.266 101.896 108.365 101.896 107.363C101.996 104.859 101.996 102.355 102.196 99.8513C103.096 82.1234 106.095 65.397 110.894 51.375C111.294 50.0729 110.694 48.6707 109.395 48.2701C108.095 47.8694 106.895 47.4688 105.595 47.0682C104.295 46.6676 102.996 47.3687 102.496 48.6707C97.2966 63.8947 94.0971 82.0232 93.2972 101.153C93.1972 103.557 91.8974 105.761 89.7977 107.063C79.0994 113.373 68.801 120.384 59.1025 128.096C57.2028 129.598 54.6032 129.498 52.7035 127.996C44.1049 120.684 36.6061 112.271 30.407 102.856C19.2088 85.5287 16.5092 69.203 22.9082 56.9838L23.0082 56.8836C23.808 55.4814 24.7079 54.1794 25.6078 52.8773C33.0066 43.162 46.6045 37.453 64.8016 36.8521C65.9015 36.8521 67.1013 36.7519 68.3011 36.7519C80.1992 36.8521 92.0974 38.6549 103.496 42.0603L104.295 42.2606L104.895 42.4609C107.695 43.2622 110.495 44.2638 113.294 45.2653L113.494 45.3655L115.694 46.1668L116.394 46.4672L117.093 46.6676C123.093 48.9712 129.092 51.6754 134.791 54.6802C145.789 60.3892 156.087 67.1999 165.486 75.1123C148.289 79.1187 128.292 86.7306 108.095 97.0469C107.195 97.5477 106.595 98.4491 106.495 99.4507C106.395 100.653 106.295 103.257 106.295 105.26C106.295 106.161 106.995 106.963 107.895 106.963C108.195 106.963 108.395 106.862 108.695 106.762C128.592 96.2456 148.489 88.4333 165.586 84.3269C168.785 83.5256 170.885 80.5209 170.385 77.2157C170.085 74.912 169.685 72.7086 169.285 70.5051C168.785 67.7007 167.286 65.2969 165.086 63.5942C156.787 57.2843 148.089 51.7756 138.79 46.968C132.491 43.6628 126.092 40.7582 119.493 38.2543C118.193 37.7535 117.593 36.3513 118.093 35.1494C118.093 35.0493 118.193 34.9491 118.293 34.8489C124.992 22.9302 132.891 16.2196 140.59 16.2196H140.79C149.888 16.4199 158.987 25.9349 165.686 42.2606C169.285 51.375 171.985 60.8899 173.585 70.5051C174.385 74.912 174.984 79.5193 175.484 84.2267L175.384 84.3269L175.584 84.5272C176.384 92.6399 176.684 100.853 176.484 109.066C176.384 114.374 176.084 119.582 175.684 124.69C161.986 135.507 147.389 145.123 131.891 153.135C126.492 156.04 120.993 158.744 115.594 161.148L115.394 161.248L114.194 161.849C109.695 163.852 105.295 165.755 100.996 167.458L100.296 167.758L99.3962 168.159L97.1966 168.96L96.5967 169.16C95.6968 169.461 94.797 169.761 93.9971 170.162L93.6971 170.262C85.0985 173.367 76.2999 175.871 67.4012 177.674C47.5043 181.179 38.3058 178.275 36.2061 174.269ZM63.2019 136.108C72.7004 128.496 82.6988 121.485 93.1972 115.276C93.3972 128.797 94.8969 142.318 97.7965 155.639C93.6971 153.836 89.5978 151.933 85.4984 149.83C77.6996 145.724 70.2008 141.216 63.2019 136.108ZM120.093 205.117C115.894 205.618 111.694 205.918 107.395 205.918C88.5979 206.019 70.1008 200.61 54.3033 190.394C53.7034 189.993 53.5034 189.192 53.9034 188.591C54.1033 188.19 54.5033 187.99 55.0032 187.99H55.7031C60.1024 187.69 64.5017 187.089 68.801 186.187C80.0993 183.884 91.0975 180.578 101.796 176.472C102.896 176.071 103.996 176.572 104.395 177.674C108.995 188.791 114.494 197.104 120.793 202.513C121.493 203.114 121.493 204.116 120.893 204.716C120.693 204.817 120.393 205.017 120.093 205.117ZM161.587 178.776C154.588 192.597 145.889 200.41 137.59 200.209C128.492 200.009 119.393 190.594 112.694 174.168C112.294 173.167 112.794 171.965 113.794 171.464L113.994 171.364C114.394 171.164 114.894 171.164 115.394 171.264C127.292 174.669 139.59 176.572 151.988 176.672C153.288 176.672 154.488 176.672 155.787 176.572C157.287 176.472 158.687 176.472 160.087 176.372C160.987 176.372 161.787 177.073 161.787 177.974C161.787 178.275 161.687 178.575 161.587 178.776ZM164.586 166.857C161.487 167.257 158.387 167.558 155.388 167.658C147.089 167.858 138.79 167.257 130.591 165.655C129.991 165.555 129.592 164.954 129.692 164.353C129.791 164.052 129.991 163.752 130.291 163.552C132.191 162.65 133.991 161.649 135.891 160.647C148.389 154.037 160.387 146.625 171.885 138.312C172.385 137.911 173.085 138.011 173.385 138.512C173.585 138.713 173.685 139.113 173.585 139.414C172.185 147.927 170.185 156.24 167.486 164.353C167.086 165.755 165.986 166.657 164.586 166.857ZM179.084 174.669C178.384 175.47 177.584 176.272 176.784 176.973C175.484 178.275 174.085 179.577 172.685 180.879C172.185 181.28 171.485 181.179 171.085 180.779C170.785 180.478 170.785 179.978 170.885 179.577C170.985 179.276 171.185 178.976 171.285 178.675C171.885 177.373 172.485 175.971 172.985 174.669C173.085 174.369 173.385 174.068 173.685 174.068C175.084 173.768 176.484 173.367 177.784 172.866C178.384 172.666 178.984 172.966 179.184 173.567C179.484 173.968 179.384 174.369 179.084 174.669ZM198.881 143.42C198.381 144.622 197.881 145.824 197.381 147.026L197.181 147.526C193.981 153.736 188.482 158.744 181.183 162.149C180.084 162.65 178.884 162.149 178.384 161.148C178.184 160.647 178.084 160.146 178.284 159.746C180.784 150.631 182.583 141.317 183.683 131.902C183.883 130.099 184.783 128.396 186.183 127.194C189.182 124.59 191.982 121.986 194.581 119.482C195.481 118.581 196.981 118.581 197.881 119.482C198.181 119.783 198.381 120.083 198.481 120.484C201.08 128.697 201.18 136.609 198.881 143.42ZM200.88 97.3474C200.38 98.3489 199.081 98.6494 198.181 98.1486C197.881 97.9483 197.681 97.748 197.481 97.4475C197.381 97.2472 197.281 97.0469 197.081 96.8466C194.081 92.2393 190.682 87.7322 186.983 83.6258C186.383 82.9246 186.483 81.9231 187.083 81.3221C187.383 81.0217 187.782 80.9215 188.182 80.9215C196.981 80.9215 201.58 83.125 202.98 85.7291C204.18 87.9325 203.88 91.8387 200.88 97.3474ZM205.68 110.368C205.68 110.668 205.38 110.969 205.08 110.969C204.88 110.969 204.58 110.769 204.48 110.568L204.18 109.767C203.98 109.266 203.98 108.765 204.28 108.265C204.38 108.164 204.48 107.964 204.68 107.764C205.08 107.163 205.68 107.263 205.68 107.864C205.68 108.765 205.68 109.466 205.68 110.368ZM517.631 87.0311H554.625C557.725 87.0311 560.124 84.5272 560.124 81.4223C560.124 81.222 560.124 81.0216 560.124 80.8213C559.724 78.0169 557.325 75.9136 554.525 75.9136H508.532C505.433 75.9136 503.033 78.4176 503.033 81.4223V136.81C503.033 139.814 505.533 142.318 508.532 142.318H554.625C557.725 142.318 560.124 139.814 560.124 136.709C560.124 136.509 560.124 136.309 560.124 136.108C559.724 133.304 557.325 131.201 554.525 131.201H517.731C515.731 131.201 514.132 129.598 514.132 127.595V118.18C514.132 116.177 515.731 114.574 517.731 114.574H545.527C548.626 114.574 551.026 112.071 551.026 108.966C551.026 108.765 551.026 108.565 551.026 108.365C550.626 105.56 548.226 103.457 545.427 103.457H517.831C515.831 103.457 514.231 101.854 514.231 99.8513V90.4365C514.032 88.6336 515.631 87.0311 517.631 87.0311ZM630.613 108.565C625.514 105.36 618.715 103.657 610.117 103.657C598.818 103.657 593.119 100.853 593.119 95.3442C593.119 89.8355 598.818 87.0311 610.117 87.0311C616.316 87.0311 622.415 88.233 628.114 90.5366C631.413 91.5382 633.713 90.3363 635.013 87.1313C636.112 84.2267 634.613 81.5224 631.613 80.1202C624.814 77.2157 617.415 75.8135 610.017 75.9136C601.618 75.9136 594.919 77.7165 589.62 81.1218C584.72 84.1265 581.721 89.5351 581.921 95.3442C581.921 101.754 584.521 106.562 589.62 109.867C594.719 113.172 601.518 114.775 610.117 114.775C621.415 114.775 627.214 117.579 627.214 123.088C627.214 128.597 621.515 131.401 610.117 131.401H607.317C601.218 131.301 595.119 130.099 589.42 127.895C586.62 126.894 583.521 128.296 582.521 131C582.521 131.101 582.521 131.101 582.421 131.201C581.421 134.105 582.921 137.31 585.82 138.412C592.619 141.216 599.918 142.619 607.317 142.519H610.117C618.515 142.519 625.214 140.716 630.413 137.31C635.413 134.306 638.412 128.897 638.212 123.088C638.312 116.678 635.713 111.77 630.613 108.565ZM741.296 75.9136C738.197 75.9136 735.797 78.4176 735.797 81.4223V136.81C735.797 139.914 738.297 142.318 741.296 142.318C744.396 142.318 746.795 139.814 746.795 136.81V81.5224C746.795 78.4176 744.296 75.9136 741.296 75.9136ZM712.101 75.9136H656.909C653.81 75.9136 651.41 78.4176 651.41 81.5224C651.41 81.7228 651.41 81.9231 651.41 82.1234C651.81 84.9278 654.21 87.0311 657.009 87.0311H675.406C677.406 87.0311 679.006 88.6336 679.006 90.6368V136.91C679.006 140.015 681.505 142.418 684.605 142.418C684.805 142.418 685.005 142.418 685.205 142.418C688.004 142.018 690.104 139.614 690.104 136.81V90.7369C690.104 88.7338 691.704 87.1313 693.703 87.1313H712.201C715.3 87.1313 717.7 84.6273 717.7 81.5224C717.7 81.3221 717.7 81.1218 717.7 80.9215C717.4 78.0169 714.9 75.9136 712.101 75.9136ZM479.337 131.301H442.543C440.543 131.301 438.943 129.698 438.943 127.695V81.6226C438.943 78.8182 436.844 76.3142 434.044 76.0138C431.044 75.6131 428.245 77.8166 427.845 80.8213C427.845 81.0216 427.845 81.222 427.845 81.5224V136.91C427.845 139.914 430.345 142.418 433.344 142.418H479.437C482.536 142.418 484.936 139.914 484.936 136.81C484.936 136.609 484.936 136.409 484.936 136.209C484.636 133.404 482.236 131.301 479.337 131.301ZM299.065 87.0311C304.964 86.931 310.563 89.3347 314.663 93.5414C315.762 94.5429 317.162 95.1439 318.662 95.1439C321.662 95.1439 324.161 92.6399 324.161 89.6352C324.061 87.9325 323.261 86.2299 321.862 85.2283C308.864 72.7086 288.267 72.9089 275.569 85.8292C269.27 91.9388 265.77 100.452 265.87 109.266C265.77 127.595 280.568 142.418 298.765 142.519C298.865 142.519 298.965 142.519 299.065 142.519C307.864 142.619 316.362 139.113 322.461 132.803C324.661 130.6 324.661 127.094 322.461 124.991C320.262 122.787 316.762 122.787 314.663 124.991C310.563 129.198 304.964 131.501 299.065 131.401C286.867 131.101 277.168 120.985 277.368 108.765C277.668 96.8466 287.267 87.2314 299.065 87.0311ZM362.755 87.0311H399.749C402.849 87.0311 405.249 84.5272 405.249 81.4223C405.249 81.222 405.249 81.0216 405.249 80.8213C404.849 78.0169 402.449 75.9136 399.649 75.9136H353.657C350.557 75.9136 348.157 78.4176 348.157 81.4223V136.81C348.157 139.814 350.657 142.318 353.657 142.318H399.749C402.849 142.318 405.249 139.814 405.249 136.709C405.249 136.509 405.249 136.309 405.249 136.108C404.849 133.304 402.449 131.201 399.649 131.201H362.855C360.855 131.201 359.256 129.598 359.256 127.595V118.18C359.256 116.177 360.855 114.574 362.855 114.574H390.551C393.65 114.574 396.05 112.071 396.05 108.966C396.05 108.765 396.05 108.565 396.05 108.365C395.65 105.56 393.25 103.457 390.451 103.457H362.855C360.855 103.457 359.256 101.854 359.256 99.8513V90.4365C359.156 88.6336 360.755 87.0311 362.755 87.0311Z" fill="white"/>
<path d="M643 172.822C643 170.737 644.735 169 646.818 169H663.061C675.694 169.208 685.69 179.633 685.482 192.212C685.412 198.189 682.983 203.818 678.748 208.057C674.514 212.435 668.683 214.798 662.644 214.729H646.818C644.735 214.729 643 212.991 643 210.907V172.822ZM650.636 176.645V207.084H662.644C666.67 207.154 670.558 205.555 673.334 202.636C679.234 196.59 679.165 186.93 673.195 181.023C670.349 178.243 666.601 176.645 662.644 176.645H650.636Z" fill="white"/>
<path d="M694.367 191.864C694.367 179.216 704.571 169 717.204 169C729.837 169 740.041 179.216 740.041 191.864C740.041 197.98 737.612 203.818 733.308 208.057C729.074 212.435 723.243 214.798 717.204 214.729C704.64 214.798 694.436 204.652 694.367 192.073C694.367 192.003 694.367 191.934 694.367 191.864ZM702.002 191.864C702.002 200.343 708.805 207.154 717.204 207.223C725.673 207.223 732.475 200.413 732.545 192.003C732.545 183.525 725.742 176.714 717.343 176.645C713.247 176.645 709.36 178.243 706.445 181.162C703.529 183.942 701.933 187.834 702.002 191.864Z" fill="white"/>
<path d="M788.632 175.394C789.603 176.089 790.159 177.27 790.228 178.452C790.228 180.536 788.493 182.274 786.41 182.274C785.369 182.274 784.397 181.926 783.703 181.162C780.927 178.243 777.039 176.575 773.013 176.645C768.987 176.575 765.031 178.243 762.254 181.162C756.284 187.139 756.284 196.729 762.254 202.706C768.224 208.683 777.803 208.683 783.773 202.706C785.23 201.177 787.59 201.107 789.187 202.497C790.714 203.957 790.783 206.32 789.395 207.918C789.326 207.988 789.256 208.057 789.187 208.127C784.953 212.505 779.122 214.868 773.083 214.798C760.519 214.868 750.315 204.721 750.245 192.142C750.245 192.073 750.245 192.003 750.245 191.934C750.176 179.355 760.311 169.139 772.875 169.069C778.705 169 784.397 171.293 788.632 175.394Z" fill="white"/>
<path d="M820.562 207.084C828.337 207.084 832.293 205.208 832.293 201.385C832.293 197.563 828.337 195.687 820.562 195.687C814.662 195.687 810.011 194.575 806.471 192.351C802.931 190.127 801.196 186.791 801.196 182.413C801.126 178.452 803.139 174.699 806.541 172.614C810.15 170.251 814.801 169.07 820.562 169.07C825.63 169 830.627 169.973 835.348 171.919C837.43 172.892 838.471 174.768 837.708 176.714C836.805 178.938 835.209 179.772 832.987 179.077C829.031 177.479 824.866 176.645 820.632 176.645C812.857 176.645 808.901 178.521 808.901 182.343C808.901 186.166 812.857 188.042 820.632 188.042C826.532 188.042 831.183 189.154 834.723 191.378C838.263 193.602 839.998 196.938 839.998 201.316C840.068 205.277 838.055 209.03 834.584 211.115C831.044 213.478 826.393 214.659 820.632 214.659H818.757C813.69 214.729 808.692 213.825 803.972 211.88C801.959 211.185 800.918 208.961 801.612 206.945C802.306 204.999 804.389 203.957 806.332 204.652C806.402 204.652 806.402 204.652 806.471 204.721C810.428 206.25 814.593 207.084 818.757 207.154L820.562 207.084Z" fill="white"/>
</svg>
